HIERARCHY
ROOT Hips
{
	OFFSET 0.000000 0.000000 0.000000
	CHANNELS 6 Xposition Yposition Zposition Zrotation Yrotation Xrotation 
	JOINT LHipJoint
	{
		OFFSET 0.000000 0.000000 0.000000
		CHANNELS 3 Zrotation Yrotation Xrotation
		JOINT LeftUpLeg
		{
			OFFSET 1.363060 -1.794630 0.839290
			CHANNELS 3 Zrotation Yrotation Xrotation
			JOINT LeftLeg
			{
				OFFSET 2.448110 -6.726130 0.000000
				CHANNELS 3 Zrotation Yrotation Xrotation
				JOINT LeftFoot
				{
					OFFSET 2.562200 -7.039590 0.000000
					CHANNELS 3 Zrotation Yrotation Xrotation
					JOINT LeftToeBase
					{
						OFFSET 0.157640 -0.433110 2.322550
						CHANNELS 3 Zrotation Yrotation Xrotation
						End Site
						{
							OFFSET 0.000000 0.000000 0.000000
						}
					}
				}
			}
		}
	}
	JOINT RHipJoint
	{
		OFFSET 0.000000 0.000000 0.000000
		CHANNELS 3 Zrotation Yrotation Xrotation
		JOINT RightUpLeg
		{
			OFFSET -1.305520 -1.794630 0.839290
			CHANNELS 3 Zrotation Yrotation Xrotation
			JOINT RightLeg
			{
				OFFSET -2.542530 -6.985550 0.000000
				CHANNELS 3 Zrotation Yrotation Xrotation
				JOINT RightFoot
				{
					OFFSET -2.568260 -7.056230 0.000000
					CHANNELS 3 Zrotation Yrotation Xrotation
					JOINT RightToeBase
					{
						OFFSET -0.164730 -0.452590 2.363150
						CHANNELS 3 Zrotation Yrotation Xrotation
						End Site
						{
							OFFSET 0.000000 0.000000 0.000000
						}
					}
				}
			}
		}
	}
	JOINT LowerBack
	{
		OFFSET 0.000000 0.000000 0.000000
		CHANNELS 3 Zrotation Yrotation Xrotation
		JOINT Spine
		{
			OFFSET 0.028270 2.035590 -0.193380
			CHANNELS 3 Zrotation Yrotation Xrotation
			JOINT Spine1
			{
				OFFSET 0.056720 2.048850 -0.042750
				CHANNELS 3 Zrotation Yrotation Xrotation
				JOINT Neck
				{
					OFFSET 0.000000 0.000000 0.000000
					CHANNELS 3 Zrotation Yrotation Xrotation
					JOINT Neck1
					{
						OFFSET -0.054170 1.746240 0.172020
						CHANNELS 3 Zrotation Yrotation Xrotation
						JOINT Head
						{
							OFFSET 0.104070 1.761360 -0.123970
							CHANNELS 3 Zrotation Yrotation Xrotation
							End Site
							{
								OFFSET 0.000000 0.000000 0.000000
							}
						}
					}
				}
				JOINT LeftShoulder
				{
					OFFSET 0.000000 0.000000 0.000000
					CHANNELS 3 Zrotation Yrotation Xrotation
					JOINT LeftArm
					{
						OFFSET 3.362410 1.200890 -0.311210
						CHANNELS 3 Zrotation Yrotation Xrotation
						JOINT LeftForeArm
						{
							OFFSET 4.983000 -0.000000 -0.000000
							CHANNELS 3 Zrotation Yrotation Xrotation
							JOINT LeftHand
							{
								OFFSET 3.483560 -0.000000 -0.000000
								CHANNELS 3 Zrotation Yrotation Xrotation
								JOINT LeftFingerBase
								{
									OFFSET 0.000000 0.000000 0.000000
									CHANNELS 3 Zrotation Yrotation Xrotation
									JOINT LeftHandIndex1
									{
										OFFSET 0.715260 -0.000000 -0.000000
										CHANNELS 3 Zrotation Yrotation Xrotation
										End Site
										{
											OFFSET 0.000000 0.000000 0.000000
										}
									}
								}
								JOINT LThumb
								{
									OFFSET 0.000000 0.000000 0.000000
									CHANNELS 3 Zrotation Yrotation Xrotation
									End Site
									{
										OFFSET 0.000000 0.000000 0.000000
									}
								}
							}
						}
					}
				}
				JOINT RightShoulder
				{
					OFFSET 0.000000 0.000000 0.000000
					CHANNELS 3 Zrotation Yrotation Xrotation
					JOINT RightArm
					{
						OFFSET -3.136600 1.374050 -0.404650
						CHANNELS 3 Zrotation Yrotation Xrotation
						JOINT RightForeArm
						{
							OFFSET -5.241900 -0.000000 -0.000000
							CHANNELS 3 Zrotation Yrotation Xrotation
							JOINT RightHand
							{
								OFFSET -3.444170 -0.000000 -0.000000
								CHANNELS 3 Zrotation Yrotation Xrotation
								JOINT RightFingerBase
								{
									OFFSET 0.000000 0.000000 0.000000
									CHANNELS 3 Zrotation Yrotation Xrotation
									JOINT RightHandIndex1
									{
										OFFSET -0.622530 -0.000000 -0.000000
										CHANNELS 3 Zrotation Yrotation Xrotation
										End Site
										{
											OFFSET 0.000000 0.000000 0.000000
										}
									}
								}
								JOINT RThumb
								{
									OFFSET 0.000000 0.000000 0.000000
									CHANNELS 3 Zrotation Yrotation Xrotation
									End Site
									{
										OFFSET 0.000000 0.000000 0.000000
									}
								}
							}
						}
					}
				}
			}
		}
	}
}
MOTION
Frames: 12
Frame Time: 0.008333
12.977284 18.135156 -43.208082 -1.035289 -19.628506 3.631087 -0.536964 2.340594 1.470948 -16.643112 -14.777471 -9.402249 -2.039565 8.795819 24.756821 -0.749485 5.289860 1.093820 3.218900 -11.041300 -32.419300 -2.872706 -3.210348 1.048915 20.170167 10.031685 -5.246047 1.196374 -9.008742 28.299076 4.683925 -17.880699 -16.153114 -0.005500 -0.478100 1.313600 0.290058 1.918876 3.711349 7.962785 2.661711 0.380820 -2.431214 1.268443 -10.854597 1.316623 4.693592 -8.558059 5.012126 5.366154 2.221666 -1.557800 2.481800 0.810500 -2.622615 -11.069232 1.653259 -88.496993 2.918677 37.179332 24.235485 -24.039121 -6.665231 1.629325 0.877651 13.564810 5.572630 -31.332287 -2.281000 -7.125000 0.000000 0.000000 -15.491000 -1.709300 16.556200 0.068652 11.292217 2.746237 85.665728 -0.617386 32.449498 -19.106940 21.664355 -5.158295 1.280410 0.209753 23.352307 1.590314 -52.847221 -0.406700 7.125000 0.000000 0.000000 74.591800 -71.329600 -54.847300 
12.961494 18.132799 -43.230117 -1.026663 -19.048308 3.906677 -0.524193 2.255869 1.364788 -16.485662 -14.895521 -9.783024 -2.015324 8.851471 24.864462 -0.492879 4.684040 1.195450 3.317000 -11.191300 -32.928000 -2.862440 -3.158323 1.005888 20.398310 11.074425 -5.012003 1.244205 -8.994167 28.190055 4.610070 -17.697139 -16.109126 -0.000000 0.030200 -0.083000 0.044280 1.998901 3.737344 7.889423 2.772759 -0.126998 -2.317862 1.323028 -10.952440 1.185297 4.479646 -8.470329 5.286485 5.079160 2.438146 -1.445600 2.357300 0.840700 -2.621867 -11.035082 1.679822 -88.427509 3.253036 37.289310 24.368876 -24.159716 -6.707769 1.554322 0.912714 14.055492 7.437702 -30.860909 -3.304400 -7.125000 0.000000 0.000000 -14.396200 -1.514600 15.256600 0.083690 11.274900 2.768693 85.765599 -1.151588 32.063477 -19.099078 21.662899 -5.151216 1.276308 0.211951 23.451351 2.004429 -52.779476 -0.744000 7.125000 0.000000 0.000000 74.646100 -71.168100 -54.702200 
12.943936 18.128086 -43.240487 -1.044553 -18.581526 3.941278 -0.512738 2.239572 1.317419 -16.382000 -15.102390 -9.853720 -1.991799 8.899521 24.975073 -0.528625 4.770518 1.210757 3.341000 -11.227600 -33.051500 -2.866418 -3.156520 0.991931 20.708876 12.161467 -4.483154 1.290137 -8.945031 28.033380 4.651413 -17.780902 -15.877515 -0.000100 0.058700 -0.161300 -0.054089 2.064521 3.713231 7.793353 2.856146 -0.321209 -2.286201 1.367714 -10.971562 0.879509 4.331469 -8.435100 5.700664 4.874856 2.646225 -1.263600 2.273300 0.874600 -2.606849 -11.017080 1.697143 -88.384563 3.662607 37.396683 24.478610 -24.352655 -6.822863 1.712739 0.789731 13.912575 3.073981 -31.461997 -0.879700 -7.125000 0.000000 0.000000 -16.907300 -1.498100 18.144200 0.094119 11.241581 2.773867 85.831491 -1.647678 31.906542 -19.116808 21.689440 -5.156837 1.272719 0.214577 23.454400 2.290227 -52.743236 -0.977100 7.125000 0.000000 0.000000 74.714000 -71.059400 -54.633800 
12.931210 18.125847 -43.255452 -1.105136 -17.740643 3.910285 -0.498158 2.235049 1.296949 -16.221395 -15.380253 -9.916512 -1.970413 8.924377 25.044857 -0.414395 4.490890 1.427603 3.446300 -11.384700 -33.588600 -2.858187 -3.168176 1.014984 21.096356 13.000791 -3.967408 1.349591 -8.877925 27.847325 4.811381 -18.275444 -15.987463 -0.000600 0.155500 -0.427100 0.010801 1.959315 3.251469 7.776325 2.684052 0.010849 -2.285917 1.302895 -10.626036 0.456104 4.259403 -8.292048 6.018481 4.752466 2.448883 -1.100400 2.199900 0.781300 -2.585844 -11.083812 1.684480 -88.315794 3.633662 37.528820 24.560824 -24.330256 -6.769983 1.483523 0.932951 12.983647 8.197329 -30.161119 -3.665500 -7.125000 0.000000 0.000000 -13.913700 -0.915700 14.568000 0.088335 11.201215 2.751376 85.699623 -1.740634 31.948668 -19.150805 21.731085 -5.185820 1.266661 0.221774 23.487571 3.069539 -53.041391 -1.617700 7.125000 0.000000 0.000000 76.009600 -70.871700 -55.631900 
12.930739 18.125258 -43.272656 -1.087483 -16.411729 3.827611 -0.500080 2.233170 1.252136 -16.148671 -15.860440 -9.933171 -1.953670 8.944351 25.097091 -0.166625 3.876072 1.773867 3.729300 -11.791300 -34.997500 -2.855143 -3.176313 1.037889 21.371483 13.261481 -3.609767 1.407798 -8.792943 27.650483 4.910125 -18.642834 -16.299168 -0.000300 0.109400 -0.300400 0.349776 1.693655 3.024477 7.481240 2.327025 0.216724 -2.428117 1.116616 -10.440676 0.020236 4.066988 -8.948648 6.624277 4.536274 3.177366 -0.831900 2.145900 1.083300 -2.538921 -11.080941 1.681963 -88.009773 3.411335 37.537970 24.559747 -24.355688 -6.773563 1.578968 0.849859 13.072212 5.734116 -30.139449 -2.303100 -7.125000 0.000000 0.000000 -15.346400 -0.529900 16.073300 0.114673 11.222209 2.742232 85.683002 -1.826051 31.861167 -19.187057 21.777727 -5.211613 1.256502 0.236877 23.485899 4.124117 -53.310724 -2.492000 7.125000 0.000000 0.000000 77.375400 -70.579200 -56.579200 
12.914713 18.122666 -43.291627 -1.069312 -15.893567 3.747749 -0.493995 2.229906 1.253655 -16.077054 -15.856859 -10.034503 -1.932640 8.969917 25.171962 0.002234 3.461528 2.007721 3.788300 -11.873200 -35.284900 -2.855783 -3.185167 1.050362 21.610265 14.012309 -3.128108 1.479004 -8.681833 27.345718 4.950395 -18.731782 -16.169407 -0.002600 -0.327700 0.900400 0.320122 1.711865 2.820522 7.312065 2.325681 0.469724 -2.411409 1.129975 -10.282363 0.272532 3.765558 -9.152390 6.374012 4.168906 3.411450 -0.944000 1.978900 1.198100 -2.514754 -11.040869 1.663948 -88.022660 3.755981 37.069973 24.829967 -24.676084 -6.915557 1.631426 0.785072 12.949550 3.935297 -30.102216 -1.322800 -7.125000 0.000000 0.000000 -16.380700 -0.241000 17.165300 0.109873 11.244076 2.731269 85.705080 -1.886653 31.758460 -19.212267 21.816409 -5.230990 1.247854 0.251370 23.359753 4.922060 -53.516093 -3.158700 7.125000 0.000000 0.000000 78.398000 -70.356800 -57.291900 
12.901516 18.113474 -43.314605 -1.063318 -15.061110 3.658778 -0.486215 2.232910 1.188593 -16.012388 -16.219369 -9.977787 -1.922293 8.986362 25.208437 0.125529 3.149464 2.248216 3.792100 -11.878500 -35.303400 -2.856929 -3.191520 1.024123 21.919906 14.580255 -2.613218 1.554445 -8.573888 27.061347 5.007410 -18.950674 -16.316661 -0.023900 -0.997900 2.743100 0.289665 1.665830 3.558193 7.142466 2.313060 -0.134808 -2.414355 1.098361 -10.838192 -0.129235 3.533478 -9.857851 7.058360 3.914189 4.585065 -0.653100 1.941100 1.628700 -2.506927 -10.920712 1.696394 -87.778683 3.945021 37.193693 24.655435 -24.515177 -6.847378 1.701388 0.741591 12.367466 1.875921 -30.318729 -0.207300 -7.125000 0.000000 0.000000 -17.566000 -0.202200 18.519300 0.147602 11.271149 2.776727 85.850638 -2.560250 31.446395 -19.244705 21.869107 -5.228427 1.241102 0.255005 23.448808 5.271777 -53.240922 -3.439000 7.125000 0.000000 0.000000 77.856400 -70.170300 -56.535000 
12.880777 18.114889 -43.323325 -0.972205 -14.004766 3.777998 -0.501161 2.199287 1.088596 -15.947112 -16.684076 -10.035643 -1.924067 8.993464 25.194807 0.291273 2.734774 2.466857 3.952200 -12.096500 -36.074200 -2.861404 -3.187751 0.996816 22.172065 14.991175 -2.287241 1.638860 -8.477388 26.783300 5.148224 -19.473839 -16.771569 -0.103100 -2.070900 5.701600 0.325202 1.567912 3.705531 6.785087 2.200729 -0.754692 -2.451239 1.028915 -11.024402 -0.341005 3.385645 -9.616976 7.506537 3.690987 4.830579 -0.482300 1.854300 1.646300 -2.480069 -10.884457 1.736651 -87.642402 4.505964 37.271615 24.573830 -24.430070 -6.820037 1.684893 0.779638 12.865578 2.890645 -30.759597 -0.765700 -7.125000 0.000000 0.000000 -16.994900 -0.766400 18.028700 0.203305 11.226433 2.785152 86.119495 -3.265221 30.958084 -19.326079 21.949523 -5.212380 1.248149 0.244299 23.733367 4.960727 -52.207161 -3.137800 7.125000 0.000000 0.000000 74.926900 -69.997700 -53.524500 
12.863573 18.114889 -43.335108 -0.912825 -13.709272 3.776838 -0.519987 2.193231 1.092490 -15.907089 -16.797250 -10.095739 -1.922200 8.998179 25.198716 0.351346 2.589451 2.443548 4.005800 -12.168200 -36.329500 -2.866438 -3.203546 1.020050 22.310467 15.420899 -2.025344 1.700070 -8.390381 26.521728 5.358538 -20.054926 -16.794830 -0.218400 -3.008200 8.301500 0.353705 1.700342 3.030384 6.528050 2.323091 -0.309762 -2.494187 1.114049 -10.531777 0.110577 3.242984 -8.867101 6.959026 3.457973 3.947900 -0.733700 1.672200 1.286900 -2.457951 -10.963075 1.725597 -87.469967 4.433364 37.190717 24.565916 -24.393569 -6.796870 1.626685 0.834906 13.430210 4.964704 -30.780548 -1.913200 -7.125000 0.000000 0.000000 -15.813200 -1.063000 16.750300 0.206932 11.191744 2.728950 86.191616 -3.252545 30.539995 -19.399496 21.999658 -5.189769 1.264781 0.225871 23.921429 4.238604 -51.026573 -2.502300 7.125000 0.000000 0.000000 71.384500 -69.867600 -50.078900 
12.849668 18.105344 -43.351605 -0.854465 -12.821761 3.565229 -0.518277 2.222914 1.091599 -15.911370 -17.105569 -9.964747 -1.918267 8.990239 25.199147 0.538702 2.111657 2.537786 4.012300 -12.176800 -36.360200 -2.864875 -3.240446 1.053893 22.538529 15.348662 -1.646282 1.754319 -8.297426 26.321453 5.608893 -20.868895 -17.225043 -0.331500 -3.700200 10.234600 0.298835 1.604848 2.995871 6.453390 2.179292 -0.097545 -2.441951 1.058931 -10.493966 -0.177181 3.054043 -9.275708 7.298016 3.233995 4.432390 -0.577700 1.597900 1.488700 -2.441920 -10.944249 1.708720 -87.517566 4.440653 36.684450 24.766295 -24.624211 -6.886451 1.668247 0.772579 12.606026 2.981161 -30.459774 -0.811100 -7.125000 0.000000 0.000000 -16.936600 -0.472500 17.872500 0.211559 11.210092 2.724799 86.115162 -3.366365 30.349676 -19.417457 22.011835 -5.173697 1.270708 0.221593 23.741381 3.883074 -50.468896 -2.197400 7.125000 0.000000 0.000000 69.710900 -69.788500 -48.466500 
12.831875 18.104048 -43.393436 -0.773267 -11.649777 3.629221 -0.511450 2.170982 1.007067 -15.799886 -17.365914 -10.215700 -1.920142 8.985143 25.160384 0.881486 1.241497 3.006302 4.048400 -12.224500 -36.531000 -2.849635 -3.221487 1.046947 22.707363 15.169221 -1.632910 1.815370 -8.228976 26.116758 5.848287 -21.655966 -17.673401 -0.449000 -4.298900 11.919200 0.154545 1.413976 3.248947 6.378510 1.926175 -0.342101 -2.335356 0.946253 -10.690056 -0.447935 2.856161 -9.395504 7.540026 2.982736 4.740396 -0.459100 1.495700 1.585300 -2.438918 -10.914156 1.711106 -87.564221 4.472776 36.297700 24.741306 -24.596333 -6.860953 1.689498 0.744460 12.324914 2.134275 -30.213573 -0.346800 -7.125000 0.000000 0.000000 -17.417700 -0.125400 18.322900 0.234651 11.210132 2.742870 86.064955 -3.564400 30.223212 -19.447717 22.056643 -5.181808 1.268206 0.231376 23.287481 3.786805 -50.376518 -2.119800 7.125000 0.000000 0.000000 69.410100 -69.785700 -48.193400 
12.816910 18.100277 -43.410405 -0.835584 -10.914413 3.590284 -0.500383 2.165057 0.972153 -15.651186 -17.597467 -10.228307 -1.918450 8.969331 25.130471 1.121110 0.631709 3.293297 4.100200 -12.292500 -36.774800 -2.845135 -3.236388 1.052677 22.985540 15.134920 -1.382443 1.873381 -8.146543 25.907707 5.980648 -22.134390 -18.004628 -0.536000 -4.690900 13.029000 0.248062 1.339163 3.267718 6.418898 1.836522 -0.495052 -2.383936 0.896702 -10.718056 -0.854381 2.744240 -8.912384 7.709295 2.808400 4.616368 -0.357200 1.398300 1.462400 -2.436909 -10.930822 1.707799 -87.709679 4.710138 35.870030 24.665824 -24.515369 -6.817895 1.722724 0.713686 12.347987 1.269874 -30.054734 0.122200 -7.125000 0.000000 0.000000 -17.913400 0.127200 18.818400 0.242793 11.152663 2.750297 85.983004 -4.073754 30.281886 -19.636976 22.284788 -5.252832 1.260968 0.240602 22.785215 3.693185 -50.285506 -2.047100 7.125000 0.000000 0.000000 69.108300 -69.779700 -47.916200 
